# xmcd
#
# Track frame offsets:
#	150
#	1709
#	17069
#	18983
#	30847
#	46886
#	60813
#	62610
#	78896
#	97116
#	98960
#	113177
#	127336
#	143040
#	159777
#	161288
#	174168
#
# Disc length: 2500 seconds
#
# Revision: 0
# Processed by: cddbd v1.5PL3 Copyright (c) Steve Scherf et al.
# Submitted via: dBpowerAMP V4.0
#
DISCID=b909c211
DTITLE=Fieldy's Dream - Rock N Roll Gangster
DYEAR=1999
DGENRE=Rap
TTITLE0=Cocky
TTITLE1=Baby Hugh Hef
TTITLE2=Rock N Roll Gangster
TTITLE3=Are You Talkin To Me
TTITLE4=Just For Now
TTITLE5=You Saved Me
TTITLE6=Munky Rage
TTITLE7=Put A Week On It
TTITLE8=Child Vigilante
TTITLE9=Korn Gigglebox
TTITLE10=Sugar-Coated
TTITLE11=Comin From A Friend
TTITLE12=One Love
TTITLE13=Ortiz Anthem
TTITLE14=Special K Buzz
TTITLE15=Bleu
TTITLE16=Do What You Feel
EXTD=Can Spell Crap Without The Rap (cRAP)
EXTT0=
EXTT1=
EXTT2=
EXTT3=
EXTT4=
EXTT5=
EXTT6=
EXTT7=
EXTT8=
EXTT9=
EXTT10=
EXTT11=
EXTT12=
EXTT13=
EXTT14=
EXTT15=
EXTT16=
PLAYORDER=
